# xmcd
#
# Track frame offsets:
#	150
#	18650
#	37480
#	53982
#	70204
#	87813
#	116874
#	137118
#	153236
#	171324
#	187899
#	205470
#	221169
#	234795
#	253785
#	273530
#	290649
#	312654
#	328257
#	343900
#
# Disc length: 4767 seconds
#
# Revision: 0
# Processed by: cddbd v1.5.2PL0 Copyright (c) Steve Scherf et al.
# Submitted via: EasyCDDAExtractor 2010.6.0.0
#
DISCID=4a129d14
DTITLE=Various Artist - Testament Van De Eighties cd 8
DYEAR=2011
DGENRE=Pop
TTITLE0=Bon Jovi - Livin´ On A Prayer
TTITLE1=Deborah Harry - French Kissin´ In The U.S.A.
TTITLE2=The Housemartins - Caravan Of Love
TTITLE3=Pepsi and Shirlie - Heartache
TTITLE4=Swing Out Sister - Surrender
TTITLE5=Scorpions - Still Loving You
TTITLE6=Piet Veerman - Sailin´ Home
TTITLE7=Carly Simon - Coming Around Again
TTITLE8=Club Nouveau - Lean On Me
TTITLE9=Circus Custers - Monica
TTITLE10=Mixed Emotions - You Want Love (Maria Maria)
TTITLE11=Johnny Hates Jazz - Shattered Dreams
TTITLE12=Bruce Willis - Under The Boardwalk
TTITLE13=Wax - Bridge To Your Heart
TTITLE14=Desireless - Voyage Voyage
TTITLE15=Cliff Richard - Some People
TTITLE16=ABC - The Night You Murdered Love
TTITLE17=The Nits - In The Dutch Mountains
TTITLE18=Bananarama - Love In The First Degree
TTITLE19=Inxs - Need You Tonight
EXTD=
EXTT0=
EXTT1=
EXTT2=
EXTT3=
EXTT4=
EXTT5=
EXTT6=
EXTT7=
EXTT8=
EXTT9=
EXTT10=
EXTT11=
EXTT12=
EXTT13=
EXTT14=
EXTT15=
EXTT16=
EXTT17=
EXTT18=
EXTT19=
PLAYORDER=
